<svg width="801" height="205" viewBox="0 0 801 205" fill="none" xmlns="http://www.w3.org/2000/svg">
<rect x="161.438" y="98.8599" width="25.3686" height="18.3925" fill="#F2F2F2"/>
<line x1="174.119" y1="80.4673" x2="174.119" y2="121.85" stroke="#F2F2F2" stroke-width="2.29907"/>
<rect x="322.873" y="172.43" width="25.3686" height="18.3925" fill="#F2F2F2"/>
<line x1="335.554" y1="154.038" x2="335.554" y2="195.421" stroke="#F2F2F2" stroke-width="2.29907"/>
<rect x="645.747" y="163.233" width="25.3686" height="32.1869" fill="#F2F2F2"/>
<line x1="658.428" y1="149.439" x2="658.428" y2="204.617" stroke="#F2F2F2" stroke-width="2.29907"/>
<rect x="96.864" y="126.449" width="25.3686" height="32.1869" fill="#F2F2F2"/>
<line x1="109.545" y1="112.654" x2="109.545" y2="167.832" stroke="#F2F2F2" stroke-width="2.29907"/>
<rect x="678.034" y="142.542" width="25.3686" height="25.2897" fill="#F2F2F2"/>
<line x1="690.716" y1="131.046" x2="690.716" y2="170.13" stroke="#F2F2F2" stroke-width="2.29907"/>
<rect x="129.15" y="105.757" width="25.3686" height="25.2897" fill="#F2F2F2"/>
<line x1="141.832" y1="94.2617" x2="141.832" y2="133.346" stroke="#F2F2F2" stroke-width="2.29907"/>
<rect x="710.324" y="124.149" width="25.3686" height="13.7944" fill="#F2F2F2"/>
<line x1="723.005" y1="112.654" x2="723.005" y2="151.738" stroke="#F2F2F2" stroke-width="2.29907"/>
<rect x="387.449" y="121.851" width="25.3686" height="52.8785" fill="#F2F2F2"/>
<line x1="400.13" y1="117.252" x2="400.13" y2="177.028" stroke="#F2F2F2" stroke-width="2.29907"/>
<rect x="452.023" y="108.056" width="25.3686" height="52.8785" fill="#F2F2F2"/>
<line x1="464.705" y1="110.355" x2="464.705" y2="163.234" stroke="#F2F2F2" stroke-width="2.29907"/>
<rect x="548.886" y="59.7759" width="25.3686" height="72.7079" fill="#F2F2F2"/>
<line x1="561.567" y1="36.7852" x2="561.567" y2="137.944" stroke="#F2F2F2" stroke-width="2.29907"/>
<rect y="22.9907" width="25.3686" height="72.7079" fill="#F2F2F2"/>
<line x1="12.6815" y1="-6.88757e-08" x2="12.6815" y2="101.159" stroke="#F2F2F2" stroke-width="2.29907"/>
<rect x="774.896" y="52.8784" width="25.3686" height="72.7079" fill="#F2F2F2"/>
<line x1="787.578" y1="43.6821" x2="787.578" y2="144.841" stroke="#F2F2F2" stroke-width="2.29907"/>
<rect x="226.011" y="151.738" width="25.3686" height="2.29907" fill="#F2F2F2"/>
<line x1="238.692" y1="137.944" x2="238.692" y2="179.327" stroke="#F2F2F2" stroke-width="2.29907"/>
<rect x="419.738" y="114.953" width="25.3686" height="2.29907" fill="#F2F2F2"/>
<line x1="432.419" y1="110.355" x2="432.419" y2="140.243" stroke="#F2F2F2" stroke-width="2.29907"/>
<rect x="355.161" y="172.43" width="25.3686" height="2.29907" fill="#F2F2F2"/>
<line x1="367.843" y1="126.449" x2="367.843" y2="183.925" stroke="#F2F2F2" stroke-width="2.29907"/>
<rect x="742.611" y="124.149" width="25.3686" height="2.29907" fill="#F2F2F2"/>
<line x1="755.292" y1="48.2803" x2="755.292" y2="135.645" stroke="#F2F2F2" stroke-width="2.29907"/>
<rect x="193.722" y="96.5605" width="25.3686" height="57.4766" fill="#F2F2F2"/>
<line x1="206.403" y1="89.6636" x2="206.403" y2="165.533" stroke="#F2F2F2" stroke-width="2.29907"/>
<rect x="581.172" y="64.3735" width="25.3686" height="75.8692" fill="#F2F2F2"/>
<line x1="593.853" y1="57.4766" x2="593.853" y2="144.841" stroke="#F2F2F2" stroke-width="2.29907"/>
<rect x="32.2882" y="27.5889" width="25.3686" height="75.8692" fill="#F2F2F2"/>
<line x1="44.9698" y1="20.6914" x2="44.9698" y2="108.056" stroke="#F2F2F2" stroke-width="2.29907"/>
<rect x="613.46" y="137.944" width="25.3686" height="48.2804" fill="#F2F2F2"/>
<line x1="626.141" y1="119.551" x2="626.141" y2="193.121" stroke="#F2F2F2" stroke-width="2.29907"/>
<rect x="64.5747" y="101.159" width="25.3686" height="48.2804" fill="#F2F2F2"/>
<line x1="77.2561" y1="82.7661" x2="77.2561" y2="156.336" stroke="#F2F2F2" stroke-width="2.29907"/>
<rect x="258.3" y="149.439" width="25.3686" height="16.0935" fill="#F2F2F2"/>
<line x1="270.979" y1="135.645" x2="270.979" y2="188.523" stroke="#F2F2F2" stroke-width="2.29907"/>
<rect width="25.3686" height="4.59813" transform="matrix(1 0 0 -1 484.309 142.542)" fill="#F2F2F2"/>
<line x1="496.99" y1="128.748" x2="496.99" y2="160.934" stroke="#F2F2F2" stroke-width="2.29907"/>
<rect width="25.3686" height="4.59813" transform="matrix(1 0 0 -1 516.598 133.346)" fill="#F2F2F2"/>
<line x1="529.279" y1="96.5605" x2="529.279" y2="147.14" stroke="#F2F2F2" stroke-width="2.29907"/>
<rect x="290.588" y="163.233" width="25.3686" height="27.5888" fill="#F2F2F2"/>
<line x1="303.269" y1="160.935" x2="303.269" y2="195.421" stroke="#F2F2F2" stroke-width="2.29907"/>
</svg>
