<svg width="24" height="24" fill="none" xmlns="http://www.w3.org/2000/svg"><circle cx="12" cy="12" r="12" fill="#fff"/><path d="M21 16.6c0 1.642-4.03 2.976-9.007 2.976C7.03 19.591 3 18.256 3 16.6c0-1.173 2.044-2.185 5.007-2.669 1.186.264 2.549.41 4 .41 1.452 0 2.83-.146 4-.41C18.97 14.415 21 15.441 21 16.6ZM12.007 8.916c3.011 0 5.452-.794 5.452-1.774s-2.44-1.774-5.452-1.774c-3.01 0-5.451.794-5.451 1.774s2.44 1.774 5.451 1.774ZM19.222 11.277c0 1.305-3.23 2.346-7.215 2.346s-7.214-1.056-7.214-2.346c0-.909 1.585-1.7 3.91-2.097.949.235 2.09.367 3.304.367 1.215 0 2.341-.132 3.29-.367 2.325.396 3.925 1.173 3.925 2.097Z" fill="#000"/></svg>