<?xml version="1.0" encoding="utf-8"?>
<!-- Generator: Adobe Illustrator 19.2.1, SVG Export Plug-In . SVG Version: 6.00 Build 0)  -->
<svg version="1.1" id="layer" xmlns="http://www.w3.org/2000/svg" xmlns:xlink="http://www.w3.org/1999/xlink" x="0px" y="0px"
	 viewBox="0 0 652 652" style="enable-background:new 0 0 652 652;" xml:space="preserve">
<style type="text/css">
	.st0{fill:#32323C;}
	.st1{fill:#FFFFFF;}
	.st2{fill:#FFAC13;}
</style>
<g id="Eth2Dai">
	<g id="logo">
		<path id="bg" class="st0" d="M35,253.2h571.4c7.9,0,14.3,6.4,14.3,14.3v108.8c0,7.9-6.4,14.3-14.3,14.3H35
			c-7.9,0-14.3-6.4-14.3-14.3V267.5C20.6,259.6,27.1,253.2,35,253.2z"/>
		<path id="Eth" class="st1" d="M118,306.9v-9.3l15.7-5v14.3h10.7v15h-10.7v20c0,2.4,1.6,3.6,4.8,3.6h5.9v13.6h-13.8
			c-8.4-1.3-12.6-6.3-12.6-15v-22.2h-7.9v-15.8L118,306.9z M71,284.7h30.5v16.1H71v13.1h27.6V330H71v13.1h30.5v16.1H71H55v-74.5H71z
			 M193.2,359.2v-30.1c0-4.9-4.5-8.9-10-8.9s-10,4-10,8.9v30.1h-15.8v-74.5h15.8v27.9c3.7-4.3,9.4-7.1,15.8-7.1
			c11.1,0,20,8.3,20,18.6c0,0,0,0,0,0l0,35.1H193.2z M236.2,350.8v-28.9c0-45.9,37.2-83.1,83.1-83.1c22.6,0,43.1,9,58.1,23.7
			l-17.7,11c-10.9-9.2-25.1-14.7-40.5-14.7c-34.8,0-63,28.2-63,63h20L236.2,350.8z M319.9,343.4h24.4v15.8H295v-12.1l0-0.5
			l29.1-30.2c3.4-3.6,3.3-9.2-0.2-12.7c-3.5-3.4-9.2-3.3-12.6,0.2c0,0-2,2.1-3.4,5.6l-14.3-7.9c1-2.4,3.6-5.8,7.9-10.3
			c8.9-9.2,24.1-9.1,33.9,0.4c9.8,9.5,10.5,24.7,1.6,33.9L319.9,343.4z"/>
		<path id="Dai" class="st2" d="M458.1,359.2h-28.6v-74.5h28.6c20.6,0,36.5,16.7,36.5,37.2S478.7,359.2,458.1,359.2z M457.7,343.1
			c11.5,0,20.5-7.2,20.5-21.1s-8.9-21.1-20.5-21.1h-12.5v42.2H457.7z M525.4,359.2c-13.8,0-25-12.7-25-28.3s11.2-28.3,25-28.3
			c6.2,0,12.1,2.5,16.5,6.8V304h15v55.1h-15V354C537.5,358.1,531.5,359.2,525.4,359.2z M528.9,344.1c7.1,0,12.9-5.8,12.9-12.9
			s-5.8-12.9-12.9-12.9c-7.1,0-12.9,5.8-12.9,12.9S521.8,344.1,528.9,344.1z M569.1,306.2h15.8v53h-15.8V306.2z M577,301.9
			c-5.1,0-9.3-4.2-9.3-9.3c0-5.1,4.2-9.3,9.3-9.3s9.3,4.2,9.3,9.3C586.3,297.7,582.1,301.9,577,301.9z M278.4,370
			c11,9.3,25.2,15,40.8,15c34.8,0,63-28.2,63-63h-20l40.1-29.4l0,29.4c0,45.9-37.2,83.1-83.1,83.1c-22.8,0-43.4-9.2-58.4-24
			L278.4,370z"/>
	</g>
</g>
</svg>
