<svg width="24" height="25" fill="none" xmlns="http://www.w3.org/2000/svg"><path d="M3.01 12.945c0-1.863.01-3.727-.01-5.59 0-.566.22-.972.658-1.3a768.78 768.78 0 0 0 5.657-4.282c.24-.178.479-.396.798-.188.3.198.22.496.16.763-.35 1.646-.718 3.282-1.078 4.917-.399 1.834-.818 3.668-1.177 5.512-.13.704.2 1.388.35 2.082.618 2.914 1.266 5.829 1.895 8.733.06.278.17.605-.16.813-.319.208-.558-.01-.798-.188a1213.851 1213.851 0 0 0-5.696-4.302c-.41-.308-.619-.694-.619-1.23.03-1.913.02-3.826.02-5.74Z" fill="#65C8A1"/><path d="M20 12.995v4.55c0 .635-.34.823-.908.506-2.813-1.606-5.617-3.212-8.43-4.808-.29-.169-.469-.228-.03-.476 2.534-1.428 5.048-2.875 7.572-4.322.32-.179.619-.377.938-.545.499-.268.858-.07.858.495v4.6ZM9.824 14.492c.728.406 1.367.753 2.005 1.12 2.185 1.24 4.36 2.488 6.545 3.737.788.446.818.704.1 1.24-1.826 1.387-3.662 2.775-5.488 4.163-.558.426-.897.297-1.047-.387-.459-2.052-.898-4.104-1.357-6.166-.27-1.19-.539-2.389-.758-3.707ZM9.824 11.449c.2-.942.379-1.824.569-2.707.498-2.33 1.017-4.649 1.506-6.979.18-.832.489-.981 1.167-.466a736.313 736.313 0 0 1 5.527 4.194c.51.386.49.733-.07 1.06a3700.39 3700.39 0 0 0-8.47 4.838c-.04.02-.09.02-.23.06Z" fill="#65C8A1"/></svg>