<svg width="512" height="512" fill="none" xmlns="http://www.w3.org/2000/svg"><path d="m255.838 315.784-149.986-85.673-4.096 6.283c-46.196 70.864-35.879 163.672 24.804 223.13 71.409 69.968 187.186 69.968 258.595 0 60.683-59.458 71-152.266 24.804-223.13l-4.097-6.285-150.024 85.675Z" fill="url(#a)"/><path opacity=".6" d="M256.03 124.412 126.74 198.34l129.29 73.835 129.197-73.834-129.197-73.929Z" fill="url(#b)"/><path d="m256.2 143.698-150.236 86.445 149.9 85.713 150.04-85.741L256.2 143.698Z" fill="url(#c)"/><path d="M256.03.098 126.74 198.34l129.29 73.835V.098Z" fill="url(#d)"/><path d="m256.021 272.189 129.302-73.847L256.028 0l-.007 272.189Z" fill="url(#e)"/><defs><radialGradient id="a" cx="0" cy="0" r="1" gradientUnits="userSpaceOnUse" gradientTransform="matrix(0 -243.386 318.092 0 255.694 512.129)"><stop offset=".204" stop-color="#56F2FF"/><stop offset="1" stop-color="#4A8CEA"/></radialGradient><radialGradient id="b" cx="0" cy="0" r="1" gradientUnits="userSpaceOnUse" gradientTransform="matrix(-.20666 73.68141 -139.49545 -.39125 255.984 198.293)"><stop stop-color="#EEFF83"/><stop offset=".69" stop-color="#5699EC"/></radialGradient><radialGradient id="c" cx="0" cy="0" r="1" gradientUnits="userSpaceOnUse" gradientTransform="rotate(90.16 13.399 242.499) scale(85.8461 161.867)"><stop stop-color="#56F2FF"/><stop offset="1" stop-color="#5699EC"/></radialGradient><linearGradient id="d" x1="191.385" y1=".098" x2="191.385" y2="272.176" gradientUnits="userSpaceOnUse"><stop offset=".377" stop-color="#FFE336"/><stop offset="1" stop-color="#13C0B6" stop-opacity=".7"/></linearGradient><linearGradient id="e" x1="320.672" y1="0" x2="320.672" y2="272.189" gradientUnits="userSpaceOnUse"><stop offset=".409" stop-color="#FF7F72"/><stop offset="1" stop-color="#2978EF" stop-opacity=".7"/></linearGradient></defs></svg>