<svg width="38" height="38" fill="none" xmlns="http://www.w3.org/2000/svg"><path d="M18.958 38c10.471 0 18.959-8.507 18.959-19S29.429 0 18.958 0C8.488 0 0 8.507 0 19s8.488 19 18.958 19Z" fill="url(#a)"/><path d="m25.523 9.462-1.878.659.676 2.13-5.595-2.898-7.58 4.174v5.63l3.042-1.08-.021-2.804 4.559-2.426 4.356 2.13-2.176.803.689 1.966 6.007-2.151-2.079-6.133ZM11.918 28.393l1.878-.662-.676-2.13 5.593 2.899 7.58-4.172v-5.63l-3.04 1.077.021 2.805-4.56 2.428-4.357-2.13 2.175-.806-.688-1.963-6.005 2.149 2.08 6.135Z" fill="#fff"/><defs><linearGradient id="a" x1="-18.917" y1="19.042" x2="19.166" y2="56.875" gradientUnits="userSpaceOnUse"><stop stop-color="#789DFF"/><stop offset="1" stop-color="#2652C4"/></linearGradient></defs></svg>