<svg width="25" height="24" fill="none" xmlns="http://www.w3.org/2000/svg"><g clip-path="url(#a)"><path d="M12.002 24c6.627 0 12-5.373 12-12s-5.373-12-12-12c-6.628 0-12 5.373-12 12s5.372 12 12 12Z" fill="#FFFFE9"/><path d="M16.996 7.156s.672-1.669.585-2.05c-.08-.372-.087-.487-.695-.94-.243.11-.678.267-1.031.198-.521-.099-.788-.278-1.037-.499a1.296 1.296 0 0 1-.405-.735c-.006-.047.046-.081.086-.052.215.156.389.44.997.643.347.116.631.08.805.023-.77-.533-1.888-1.263-2.555-1.483-.851-.278-1.234.266-1.234.266l-.799 1.263s1.344.197 2.717.968c1.367.764 2.566 2.398 2.566 2.398Z" fill="#3800D6"/><path d="M19.14 9.05a2.013 2.013 0 0 1-.765-.064c-1.338-.376-2.16-2.583-4.478-3.974-3.702-1.911-5.688-.185-5.688-.185-.255.174.005.284.005.284l1.217.614.573.301s-.365.47-1.106.11a1.09 1.09 0 0 0-1.106.203c-.412.226-.232.88-.533 1.298-.296.417-.887.347-.95.95-.053.614.434.73.446 1.187.011.458-.157.718-.203.84a.583.583 0 0 0-.03.18.437.437 0 0 0 .105.243.595.595 0 0 0 .133.116c.197.133.365.307.475.515.018.035.035.07.058.105.018.029.035.063.058.104.128.226.18.492.133.753a.507.507 0 0 0 .018.226.454.454 0 0 0 .313.284c.214.052.4.18.527.359.011.011.017.029.029.04.174.244.139.626.208.904.07.278.302.365.638.556.335.191.405.492.266.637-.139.145-.962-.208-1.292.186-.243.226-.139.37-.26.799-.122.434-.493.116-.69.417-.197.301-.226.626-.127 1.269.098.643.724 1.529.724 1.529s-.336-1.17.394-2.172c.62-.73 1.095-.829 1.796-.84.706-.018 1.749.62 1.963 1.87.11.83-.341 1.31-.376 1.356-.081.093-.748.829-1.634.336-.243-.168-.457-.341-.602-.677-.105-.308-.134-.719.04-.997a.665.665 0 0 1 .446-.307c.105-.011.33-.006.475.104.145.11.302.273.273.55-.03.279-.319.36-.43.337-.092-.018-.028-.006-.005 0-.18-.012-.26-.15-.295-.25-.006-.023-.04-.017-.047.006a.608.608 0 0 0 .412.667c.19.04.475.034.706-.203.203-.203.313-.377.313-.823 0-.365-.15-.62-.4-.84-.324-.3-.753-.417-1.048-.393a1.387 1.387 0 0 0-1.083.642c-.296.464-.423 1.101-.174 1.814l.012.023c.567 1.326 1.894 1.662 2.809 1.662.185 0 .353-.011.492-.035.03-.005.684-.104 1.321-.498.788-.521 1.257-1.274 1.257-2.438 0-1.547-.678-2.578-2.068-4.189-.266-.33-1.35-1.668-1.546-1.928C9.87 11.36 8.787 9.89 9.326 8.771c.017-.035.034-.064.052-.099.805-1.477 3.076-1.112 2.578-1.019-.864.145-1.38.527-1.536.695-.156.168-.243.313-.347.585-.18.446-.035 1.136.347 1.738 1.663 2.358 4.119 5.294 4.42 6.001.388.892.446 1.599.44 2.033-.005.435-.11 1.13-.11 1.13s.574-.458.846-1.014.319-.822.238-1.03c-.087-.21-.302-.215-.388-.557-.087-.342.156-.643-.099-1.187-.11-.238-.695-.585-.996-.968-.302-.382-.852-1.066-1.263-1.616-.742-.985-.985-1.32-1.414-1.877.464.14 1.043.33 2.375-.29 1.234.632 2.08.597 2.376.58.295-.018.573-.15.787-.319.14-.11.244-.33.307-.475.023-.052-.029-.098-.08-.08-1.038.428-1.993.08-3.17-.574l-.208-.116-.208.11c-1.234.66-2.532.145-2.648.098-.046-.023-.4-.208-.556-.521-.156-.313-.191-.643-.075-.921.093-.226.313-.377.672-.452.295-.035.678.075.985.197.07.029.133-.04.104-.104a.774.774 0 0 1 .093-.753l.41.19a.344.344 0 1 0 .585.272l.389.18a.78.78 0 0 1-.574.574c-.057.012-.063.087-.005.104.527.25 2.068.968 2.068.968s.892.498 1.674.4c.753-.041 1.089-.638.643-.58-.446.058-1.5-.4-1.5-.4l-.707-.33.295-.457s1.008.573 1.9.77c.591.128.99-.208 1.194-.452.063-.063.005-.168-.082-.156Zm-8.25-2.01c-.376.046-.95.22-1.274.376a3.682 3.682 0 0 0-.313.168 2.237 2.237 0 0 0-.741.846c-.794 1.541.66 3.43 1.83 4.947.197.255.377.492.54.713.248.341.52.677.787.996.684.84 1.437 1.732 1.76 2.723.088.347.1.671.059.932-.14.811-.846 1.09-.846 1.09.104-.337.162-.771.099-1.27v-.011c-.215-1.164-1.159-2.195-1.159-2.195-.226-.302-.47-.614-.666-.87-1.987-2.554-2.184-2.844-2.653-3.695l-.006-.012a1.312 1.312 0 0 0-.046-.08c-.273-.458-1.002-1.68-.684-2.96.075-.296.209-.563.4-.794 1.164-1.512 3.394-.997 2.914-.904Z" fill="#3800D6"/></g><defs><clipPath id="a"><path fill="#fff" transform="translate(.002)" d="M0 0h24v24H0z"/></clipPath></defs></svg>