<svg width="24" height="24" fill="none" xmlns="http://www.w3.org/2000/svg"><path d="M14.116 13.79c1.13 2.243 1.887 4.579.777 7.018-1.783 3.907-7.127 4.297-9.9.785-2.565-3.251-2.663-8.101-.244-12.21.392-.66.729-1.354 1.147-1.999.36-.564.995-.602 1.186-.016 1.032 3.154 3.196 5.684 4.631 8.605 1.158 2.369.452 4.531-1.511 4.77-1.653.205-2.99-.857-3.708-2.981-.331-.976-.51-1.978-.418-3.019.038-.471.266-.748.76-.688.458.054.604.363.593.802-.038 1.355.24 2.645 1.044 3.761.435.613 1.044 1.014 1.821.678.805-.353.696-1.084.522-1.735-.576-2.162-2.12-3.799-3.147-5.717-.37-.683-.707-1.382-1.066-2.07-.065-.13-.158-.25-.24-.374-.08.114-.179.228-.244.352-1.576 2.878-2.375 5.858-1.152 9.094 1.103 2.91 3.947 4.47 6.42 3.522 2.479-.953 3.305-3.582 2.088-6.676-.979-2.488-2.768-4.52-3.915-6.915-1.5-3.122-.842-6.335 1.773-8.487.467-.385.87-.412 1.277.07 3.197 3.734 6.236 7.593 7.774 12.335 1.218 3.75.712 7.24-2.261 10.118-.294.282-.62.482-1.039.282-.337-.163-.402-.488-.32-.803 1.163-4.595-.44-8.557-2.8-12.356-.685-1.1-1.332-2.232-1.979-3.354-.228-.396-.255-.83.218-1.062.429-.212.75-.011.989.406 1.718 3.067 3.816 5.929 4.795 9.37.424 1.485.576 2.992.522 4.525-.006.087.021.174.032.26.05-.07.114-.13.152-.206 1.74-3.44.772-6.649-.875-9.781-1.555-2.97-3.517-5.674-5.708-8.221-.228-.266-.348-.152-.505.043-1.98 2.412-1.974 4.514.032 7.825.816 1.355 1.647 2.7 2.48 4.049Z" fill="url(#a)"/><defs><radialGradient id="a" cx="0" cy="0" r="1" gradientUnits="userSpaceOnUse" gradientTransform="matrix(7.00003 27.00004 -20.25 5.25002 8.5 3)"><stop stop-color="#E9ACEF"/><stop offset=".708" stop-color="#3FBBFF"/><stop offset="1" stop-color="#59FFE8"/></radialGradient></defs></svg>