<svg width="24" height="24" fill="none" xmlns="http://www.w3.org/2000/svg"><path d="M1.452 13.008 1.2 15.894l6.977 2.61 14.004-1.406.326-1.907-.326-2.535-1.18-2.86.828-3.59.552-3.438-.2-1.681-.352-.703-.477-.2-.828.2-1.33.703-1.732 1.43-1.606 1.807-.677-.175-2.46-.352h-2.233l-2.535.527L6.22 2.517l-1.506-1.43L2.983.183h-.728l-.552.628-.251 1.405.25 2.936.553 2.987.427 1.656-1.23 3.213Z" fill="#FDA207"/><path d="M6.747 4.927c-1.455.778-3.262 3.337-3.262 3.337s-2.008-6.148-.628-6.198c1.38-.05 3.89 2.86 3.89 2.86Z" fill="#FD9200"/><path fill-rule="evenodd" clip-rule="evenodd" d="M5.837 5.583C4.633 6.637 3.485 8.264 3.485 8.264S2.272 4.552 2.379 2.873a.605.605 0 0 1 .052-.004c1.414-.052 3.15 2.35 3.406 2.714Z" fill="#FD8300"/><path d="M16.861 4.927c1.456.778 3.263 3.337 3.263 3.337s2.007-6.148.627-6.198c-1.38-.05-3.89 2.86-3.89 2.86Z" fill="#FD9200"/><path fill-rule="evenodd" clip-rule="evenodd" d="M17.771 5.583c1.204 1.054 2.353 2.681 2.353 2.681s1.212-3.712 1.105-5.391a.606.606 0 0 0-.051-.004c-1.415-.052-3.151 2.35-3.407 2.714Z" fill="#FD8300"/><path d="M7.274 17.475c-3.187-3.087-6.123-1.657-6.123-1.657l.326 1.356.828 1.48 1.531 1.607 2.936 2.083 3.012 1.204 2.284.327 2.258-.327 3.263-1.204 2.585-2.083 1.757-2.184.602-2.259c-3.413-1.154-6.174 1.657-6.174 1.657s-.928-3.64-4.442-3.64c-3.513 0-4.643 3.64-4.643 3.64ZM5.869 9.87c0 .663.836.812 1.255.804.46-.034 1.38-.241 1.38-.803 0-.703-.778-1.205-1.38-1.205-.352 0-1.255.376-1.255 1.205Z" fill="#fff"/><path d="M6.145 11.301c-.683-.22-.77.477-.728.853.007.226.075.452.402.728.326.276 3.764 1.657 3.764.828 0-.828-2.585-2.133-3.438-2.409Z" fill="#000"/><path d="M17.765 9.87c0 .663-.837.812-1.255.804-.46-.034-1.38-.241-1.38-.803 0-.703.777-1.205 1.38-1.205.351 0 1.255.376 1.255 1.205Z" fill="#fff"/><path d="M17.74 11.301c.682-.22.769.477.727.853-.007.226-.075.452-.401.728-.327.276-3.765 1.657-3.765.828 0-.828 2.585-2.133 3.438-2.409ZM12.043 18.152v.603l-.427.451h-1.004l-.402-.15h-.803l.352.828h.226l.376.904.125-.226v-1.054c.226.033.874.1 1.657.1s1.514-.1 1.782-.15v1.054l.175.276.352-.904h.2l.252-.828h-.879l-.1.15h-.954l-.502-.376v-.477c0-.401.15-.401.703-.702.552-.302.502-.929.502-1.581 0-.523-.402-.636-.602-.628h-1.757c-.603 0-.728.351-.728.502 0 .15-.126 1.305.577 1.606.562.241.82.502.879.602Z" fill="#000"/><path d="m13.072 19.884-1.958-.05.25.351.302-.125.477.401.426-.401.251.125.252-.3Z" fill="#000"/><path fill-rule="evenodd" clip-rule="evenodd" d="M15.757 4.149s-3.664-1.43-7.755 0c0 0-3.84-4.835-5.873-4.066-2.032.77.402 9.587.402 9.587-.102.278-.22.567-.345.871C1.653 11.84 1 13.432 1 15.769 1 18.654 6.32 24 11.842 24c5.521 0 10.867-4.668 10.867-8.232 0-3.563-1.556-6.098-1.556-6.098s2.685-9.06.426-9.587c-2.259-.527-5.822 4.066-5.822 4.066ZM2.86 9.79l.039-.106-.03-.109-.066.019.066-.019-.002-.005-.005-.019a17.853 17.853 0 0 1-.093-.35c-.062-.24-.148-.586-.246-1.002a41.907 41.907 0 0 1-.609-3.089c-.176-1.143-.285-2.287-.23-3.184.028-.45.096-.814.203-1.079.108-.264.237-.388.366-.436.36-.137.862-.041 1.485.292.608.325 1.254.834 1.852 1.382.595.546 1.13 1.117 1.516 1.552a22.707 22.707 0 0 1 .61.717l.008.01.001.002.156.196.236-.083c1.98-.692 3.861-.693 5.252-.52.694.088 1.264.218 1.657.326a8.469 8.469 0 0 1 .595.187l.006.003h.001l.245.095.16-.207.002-.003.007-.009.022-.027.007-.01.114-.14a19.866 19.866 0 0 1 1.873-1.998c.577-.533 1.21-1.036 1.826-1.373C20.51.462 21.061.323 21.5.425c.15.035.282.14.393.373.116.241.192.588.223 1.03.063.881-.055 2.03-.249 3.188a40.453 40.453 0 0 1-.67 3.144 45.472 45.472 0 0 1-.352 1.31l-.021.075-.007.024v.001l-.045.15.082.133v.001l.003.004.005.008.006.01.046.08c.04.073.098.18.168.322a12.677 12.677 0 0 1 1.276 5.49c0 1.625-1.238 3.592-3.23 5.178-1.978 1.573-4.62 2.703-7.285 2.703-2.653 0-5.286-1.289-7.266-2.952-.987-.829-1.8-1.742-2.363-2.615-.569-.882-.862-1.689-.862-2.314 0-2.261.623-3.78 1.153-5.076.128-.31.25-.61.357-.901Z" fill="#000"/></svg>