<svg width="25" height="24" fill="none" xmlns="http://www.w3.org/2000/svg"><path d="M5.699 9.6h12.363l-.97 14.4H6.912L5.699 9.6Z" fill="#F2B3C0"/><path fill-rule="evenodd" clip-rule="evenodd" d="M11.76 24V9.6h6.302l-.97 14.4H11.76Z" fill="#F3A1AD"/><path fill-rule="evenodd" clip-rule="evenodd" d="m6.426 18.24-.424-5.04H17.82l-.34 5.04H6.426Z" fill="#3B72C4"/><path d="M7.295.049a.73.73 0 0 0-.941.411.718.718 0 0 0 .415.932l3.293 1.262V7.2H4.487a.482.482 0 0 0-.485.48v1.44c0 .265.217.48.485.48h15.03a.482.482 0 0 0 .485-.48V7.68a.482.482 0 0 0-.485-.48h-8V2.16a.72.72 0 0 0-.465-.671L7.295.049Z" fill="#3B72C4"/><path fill-rule="evenodd" clip-rule="evenodd" d="m17.48 18.24.34-5.04h-6.06v5.04h5.72Z" fill="#225596"/><path d="M11.76 7.2h7.042a1.2 1.2 0 0 1 0 2.4h-7.043V7.2Z" fill="#225596"/><ellipse cx="11.759" cy="15.84" rx="1.697" ry="1.68" fill="#CF3E2E"/></svg>