<svg width="24" height="24" fill="none" xmlns="http://www.w3.org/2000/svg"><circle cx="12" cy="12" r="12" fill="#212426"/><path d="M15.333 16.346c.028.007.056.02.14.053-.098.164-.196.322-.308.513a3.16 3.16 0 0 1-.098-.263c-1.386 1.387-2.983 2.4-5.05 2.689-.14.223-.3.48-.468.742.028.04.056.08.09.125-.076.257-.392.428-.308.756a.864.864 0 0 0-.217.737c-.112.105-.203.19-.308.295-.266-.144-.546-.203-.812.007-.252-.158-.266-.394-.35-.611-.084-.198-.266-.355-.414-.54v-.039c0-.302-.07-.624.021-.894.084-.25.134-.52.232-.756.147-.368.105-.611-.239-.848-.16-.105-.245-.316-.343-.493-.23-.42-.483-.835-.658-1.275-.238-.592-.336-.881-.133-1.512.049-.152.07-.322.112-.487.105-.467.364-.835.721-1.15.414 0 .484.033.84.355v.309c.309.243.87.131.967.664-.049.118-.105.263-.182.453l.434-.046c-.007-.006.042.04.098.086-.196.25-.028.526-.112.782.526.132.946-.085 1.352-.243a7.509 7.509 0 0 0 1.324-.67c.518-.343.798-.842 1.106-1.335.05-.08.007-.21.007-.316-.14-.125-.252-.243-.483-.29-.287-.058-.553-.262-.813-.426-.287-.184-.616-.29-.896-.5-.553-.414-1.085-.835-1.387-1.466-.294-.611-.483-1.256-.742-1.88.056-.388-.098-.782.091-1.183.168-.362.378-.638.75-.809.048-.02.083-.072.118-.112.428-.473.98-.75 1.59-.94.21-.066.392-.21.588-.309.26-.138.505-.27.799-.342.238-.059.434-.243.553-.5.252-.519.525-1.038.84-1.524.309-.48.673-.92 1.387-1.144a.957.957 0 0 1 .756.21c-.056.04-.098.099-.154.105-.224.046-.448.086-.546.329l-.014-.013a.877.877 0 0 1-.09.072l.034.033a.465.465 0 0 0 .07-.092c.07-.007.14-.007.217-.007-.035.053-.07.112-.126.21.35-.039.616-.328 1.002-.177.007.132.014.303.02.46.078.027.14.046.21.073-.111.526-.636.9-.538 1.499-.246.223-.498.447-.456.821.287.362.61.704.862 1.085.23.362.392.763.581 1.144-.091.27-.182.532-.28.815a.706.706 0 0 0-.091-.066l-.84.645c-.099-.08-.19-.152-.302-.237h-.3c-.33-.197-.351-.533-.456-.874-.217.032-.434.059-.686.098a2.27 2.27 0 0 0-.105-.204c-.533.257-1.093.474-1.59.783-.378.236-.813.46-.98.927.216-.158.427-.322.65-.474.05-.033.134-.026.204-.04-.252.27-.511.54-.792.842.287.178.568.395.883.533.672.309 1.302.684 1.793 1.23.44.499.868 1.005 1.134 1.616.12.27.203.553.315.829.042.105.112.203.21.38v.882c-.154.263-.37.545-.434.9l-.014-.013a.872.872 0 0 1-.09.073l.034.033c.021-.033.05-.06.07-.093ZM13.638 7.32c-.469.224-.917.382-1.31.638-.398.257-.91.408-1.092.914a7.628 7.628 0 0 1 1.149-.618c.497-.21.966-.487 1.45-.73.09-.046.182-.098.364-.204h-.56Zm.217 9.605c-.805.447-1.498.828-2.191 1.21-.008.006 0 .032 0 .098.504.099.854-.27 1.26-.42.371-.139.665-.421.931-.888Zm-.98-10.86c-.161 0-.294-.053-.462.033-.595.322-1.219.605-1.821.907-.063.033-.105.099-.154.151-.035.04-.063.079-.091.118.847-.414 1.75-.677 2.528-1.21Zm-2.416 10.8c.994-.177 1.695-.551 2.059-1.058-.077 0-.182-.033-.217.007-.518.44-1.19.625-1.842 1.052Zm.448-9.393c.637-.303 1.282-.605 1.92-.914.02-.007.02-.046.041-.086h-.35c-.546.355-1.184.533-1.61 1Zm.687 9.407c.133-.053.273-.105.399-.171.119-.066.23-.145.35-.223.189-.125.217-.158.266-.283-.392.177-.742.361-1.015.677Z" fill="#fff"/></svg>