<svg xmlns="http://www.w3.org/2000/svg" width="151.237" height="52.923"><defs><radialGradient id="a" cx=".164" cy=".653" r=".805" gradientTransform="matrix(1.28 0 0 1 -.14 0)" gradientUnits="objectBoundingBox"><stop offset="0" stop-color="#41bef0"/><stop offset=".469" stop-color="#828cbe"/><stop offset=".54" stop-color="#8f80ae"/><stop offset=".794" stop-color="#bc5a79"/><stop offset=".917" stop-color="#cd4b64"/></radialGradient><style>.a{fill:#1d1d1b}</style></defs><path class="a" d="M56.665 7.758h9.231c6.187 0 10.017 1.669 12.423 4.076 2.357 2.357 3.437 5.45 3.437 9.28a17.449 17.449 0 0 1-5.2 12.521c-3.83 3.83-9.28 5.843-16.646 5.843H48.121Zm4.076 25.484a14.837 14.837 0 0 0 10.606-3.879 11.084 11.084 0 0 0 3.192-7.955 6.941 6.941 0 0 0-1.866-5.058c-1.424-1.424-3.732-2.308-7.316-2.308h-3.388l-5.156 19.15h3.928ZM87.748 21.115h-2.9l1.571-5.892h2.848l.295-1.326c1.424-5.4 4.763-7.807 9.821-7.807a14.737 14.737 0 0 1 4.714.687l-1.473 5.7a9.024 9.024 0 0 0-3-.589 3.207 3.207 0 0 0-3.388 2.652l-.2.687h5.843l-1.571 5.892h-5.7L89.6 39.533h-6.861ZM97.42 45.224l3.683-5.008a4.821 4.821 0 0 0 2.652.933 3.012 3.012 0 0 0 2.652-1.473l-3-24.5h7.022l1.129 16.5 9.137-16.503h7.415l-15.075 24.9c-3.192 4.959-5.892 6.825-10.017 6.825a8.551 8.551 0 0 1-5.598-1.674ZM131.253 15.222h6.874l-.442 1.571c1.719-1.522 3.634-2.013 6.383-2.013 4.37 0 7.169 2.652 7.169 7.071a18 18 0 0 1-.835 4.616l-3.486 13.061h-6.874l3.585-13.356a8.758 8.758 0 0 0 .295-2.161c0-1.964-1.228-3-3.339-3-2.7 0-4.468 1.964-5.254 4.861l-3.683 13.651h-6.875Z"/><path d="m38.171 60.177.835-3.29c0-.1-.049-.2-.147-.2H23.047c-.1 0-.147-.1-.147-.2l8.151-30.3c0-.049.1-.1.147-.1h8.789c5.941 0 9.673 1.62 11.981 3.928a12.076 12.076 0 0 1 3.339 8.937 16.609 16.609 0 0 1-.884 5.4 15.189 15.189 0 0 1-2.111 4.174c-.049.1 0 .246.1.246H64.1a.138.138 0 0 1 .1.246L33.6 78.984a.149.149 0 0 1-.246-.147Z" transform="translate(-22.9 -26.1)" style="fill:url(#a)"/></svg>