<svg xmlns="http://www.w3.org/2000/svg" xmlns:xlink="http://www.w3.org/1999/xlink" viewBox="0 0 59.3 59.4" style="enable-background:new 0 0 59.3 59.4" xml:space="preserve"><radialGradient id="a" cx="29.7" cy="1048.48" r="28.944" gradientTransform="translate(0 -1018.78)" gradientUnits="userSpaceOnUse"><stop offset="0" style="stop-color:#3e57a6"/><stop offset=".18" style="stop-color:#3c54a1"/><stop offset=".4" style="stop-color:#354b92"/><stop offset=".65" style="stop-color:#2b3d79"/><stop offset=".91" style="stop-color:#1c2856"/><stop offset="1" style="stop-color:#162048"/></radialGradient><circle cx="29.7" cy="29.7" r="29" style="fill:url(#a)"/><defs><circle id="b" cx="29.7" cy="29.7" r="29"/></defs><clipPath id="c"><use xlink:href="#b" style="overflow:visible"/></clipPath><g style="clip-path:url(#c)"><linearGradient id="d" gradientUnits="userSpaceOnUse" x1="22.915" y1="1065.36" x2="54.914" y2="1031" gradientTransform="translate(0 -1018.78)"><stop offset="0" style="stop-color:#eb2627"/><stop offset=".13" style="stop-color:#ed4229"/><stop offset=".43" style="stop-color:#f2822d"/><stop offset=".69" style="stop-color:#f5b130"/><stop offset=".89" style="stop-color:#f7cd31"/><stop offset="1" style="stop-color:#f8d832"/></linearGradient><path d="M53.9 32.6c-.1 1-.2 2.1-.4 3.1-1.2 1.5-3.8 3.7-9.2 6.4 2.9-.2 5.7-1.1 8.1-2.7-2.7 7.2-9 12.6-16.6 14l.3-.1c1.2-.5 2-1.6 2.1-2.8 0-.4.1-.8 0-1.2v-.7c-.1-2.6-1.2-5.1-3.1-6.9v-.8c.2-.1.4-.2.7-.3 1-.4 1.9-1 2.7-1.7l.5-.4c7-6.5 8.4-22.1-3.2-32.7C40 7 43.9 9.3 47 12.3c0 .1.3 1.5-.8 5.1.8-1.2 1.4-2.6 1.9-4 1.7 2 3 4.3 3.9 6.7.3.8.6 1.7.8 2.5-1.2 2.4-2.7 4.6-4.4 6.6 1.9-1.2 3.5-2.7 4.9-4.4.3 1.7.5 3.5.5 5.2.2 1 .1 1.8.1 2.6z" style="fill:url(#d)"/><linearGradient id="e" gradientUnits="userSpaceOnUse" x1="45.454" y1="1049.326" x2="52.844" y2="1031.206" gradientTransform="translate(0 -1018.78)"><stop offset="0" style="stop-color:#b78a3e"/><stop offset="1" style="stop-color:#ceae4c"/></linearGradient><path d="M49.7 22c.1-2.9-.4-5.8-1.5-8.5 1.7 2 3 4.2 3.9 6.6.3.8.6 1.7.8 2.5-1.2 2.4-2.7 4.6-4.4 6.6.7-2.3 1.1-4.7 1.2-7.2z" style="fill:url(#e)"/><linearGradient id="f" gradientUnits="userSpaceOnUse" x1="56.425" y1="1044.41" x2="39.875" y2="1070.67" gradientTransform="translate(0 -1018.78)"><stop offset="0" style="stop-color:#b78a3e"/><stop offset="1" style="stop-color:#eb2627"/></linearGradient><path d="M53.9 32.6c-.1 1-.2 2.1-.4 3.1-1.2 1.5-3.8 3.7-9.2 6.4 2.7-3 9-12.7 9.1-17.1.3 1.7.5 3.5.5 5.2.1.8 0 1.6 0 2.4z" style="fill:url(#f)"/><linearGradient id="g" gradientUnits="userSpaceOnUse" x1="38.571" y1="1061.269" x2="44.081" y2="1000.359" gradientTransform="translate(0 -1018.78)"><stop offset="0" style="stop-color:#eb2627"/><stop offset=".06" style="stop-color:#ed4129"/><stop offset=".16" style="stop-color:#f0692b"/><stop offset=".26" style="stop-color:#f28c2d"/><stop offset=".37" style="stop-color:#f4a72f"/><stop offset=".49" style="stop-color:#f6bd30"/><stop offset=".62" style="stop-color:#f7cc31"/><stop offset=".78" style="stop-color:#f8d532"/><stop offset="1" style="stop-color:#f8d832"/></linearGradient><path d="M42.5 10.3c1.8 2.8 8.4 18.7-3.3 28.1 7-6.5 8.4-22.1-3.2-32.7 4.2 1.2 8 3.5 11.2 6.6-1.5-.8-3-1.5-4.7-2z" style="fill:url(#g)"/><linearGradient id="h" gradientUnits="userSpaceOnUse" x1="24.035" y1="1094.544" x2="36.375" y2="1045.174" gradientTransform="translate(0 -1018.78)"><stop offset="0" style="stop-color:#eb2627"/><stop offset="1" style="stop-color:#f8d832"/></linearGradient><path d="M35.3 40.8v.8c2 1.9 3.1 4.5 3.1 7.2v.5c0 1.2 0 3.3-2.5 4.2-.5.9-1.1 1.8-1.8 2.5.7-1.7 1-3.6.7-5.5-.8 4.3-6.3 7.9-8.9 11.9-1.5 2.1-2.4 4.6-2.7 7.3-.3-3.5 0-7.1.9-10.5 0-.1.1-.2.1-.3v-.1c5.7-9.4 3.6-14.9 3.6-14.9l-1.5-3.8V40c0-.3-.1-.6-.1-.9-.2-1.8-.1-3.6.3-5.3.6-2.5 2.5-4.4 5-4.9-1.3-.5-2.1-1.6-2.3-3 .3.5 1.5 1.2 4.6 2 5.8 1.3 4.2 4 4.4 4.2 1.1 1 1.5 2.6 1.2 4.1-1-1.8-2.8-2.9-4.9-2.8-.5 0-.9.1-1.3.3-2.3.8-.7 4.6 2.1 7.1z" style="fill:url(#h)"/><linearGradient id="i" gradientUnits="userSpaceOnUse" x1="46.47" y1="1054.832" x2="26.88" y2="1046.362" gradientTransform="translate(0 -1018.78)"><stop offset="0" style="stop-color:#eb2627"/><stop offset="1" style="stop-color:#f8d832"/></linearGradient><path d="M39.2 35.9s.2-2.8-3.2-4.4c.5 0 1 0 1.4.2-.4-.9-1.6-2.7-4.8-2.4.5-.2 1.1-.3 1.7-.3 0 0-3.9-.6-5.2-3.2.3.5 1.5 1.2 4.6 2 5.8 1.3 4.2 4 4.4 4.2 1 .9 1.5 2.5 1.1 3.9z" style="fill:url(#i)"/><path d="M36 30.7c-.4.1-.8.1-1.2-.1-.3-.2-.6-.3-.9-.4 0 0 1.5-.5 2.1.5z" style="fill:#e92929"/><path d="M38.4 47.4c0-2.5-1.1-4.9-3.1-6.5-2.8-2.6-4.5-6.3-2.4-7.4-1.1.5-1.7 1.8-1.5 3 .2 2.4 1.6 3.9 1.6 8.2.4-1.1.5-2.2.5-3.3.8.2 4.8 2.3 4.7 8.6.2-.9.2-1.8.2-2.6z" style="fill:#d17f2a"/><linearGradient id="j" gradientUnits="userSpaceOnUse" x1="59.266" y1="1059.174" x2="24.346" y2="1073.354" gradientTransform="translate(0 -1018.78)"><stop offset="0" style="stop-color:#b78a3e"/><stop offset="1" style="stop-color:#eb2627"/></linearGradient><path d="M52.4 39.4c-2.7 7.2-9 12.6-16.6 14 1.3-2.4 1.6-5.2.9-7.8 1 1.3 1.5 2.8 1.5 4.4.1-.9.2-1.7.1-2.6 7.7 0 13.9-7.8 14.1-8z" style="fill:url(#j)"/><linearGradient id="k" gradientUnits="userSpaceOnUse" x1="36.97" y1="1074.13" x2="37.32" y2="1052.46" gradientTransform="translate(0 -1018.78)"><stop offset="0" style="stop-color:#8e5323"/><stop offset="1" style="stop-color:#e59b29"/></linearGradient><path d="M38.9 47.4c0 1-.2 2-.6 3v.1c0 .1-.1.2-.1.3-.1-1.3-.4-2.5-.8-3.7.3 2.1-.1 4.2-1.1 6.1v.1l-.3.1c1.3-2.4 1.6-5.2.9-7.8 1 1.3 1.5 2.8 1.5 4.4 0-.3.1-.8.1-1.2v-1.4c0-2.5-1.1-4.9-3.1-6.5.2-.1.4-.2.7-.3 1.8 1.8 2.8 4.2 2.8 6.8z" style="fill:url(#k)"/><linearGradient id="l" gradientUnits="userSpaceOnUse" x1="16.049" y1="1103.797" x2="18.409" y2="1041.567" gradientTransform="translate(0 -1018.78)"><stop offset="0" style="stop-color:#eb2627"/><stop offset=".11" style="stop-color:#ec2e27"/><stop offset=".28" style="stop-color:#ed4429"/><stop offset=".49" style="stop-color:#f0682b"/><stop offset=".74" style="stop-color:#f3992e"/><stop offset="1" style="stop-color:#f8d832"/></linearGradient><path d="M24.1 58.6c-6.6 6.9-8.3 17.1-4.3 25.7-.2-.1-5.7-3.8-5.2-17.7-1.4 1.5-2 5.6-2 8.7s.5 4.7 1 8.1c.5 3.9.1 9.8-1.9 13.2 0-.2.5-8.3-1.8-13.5-5.5-11.4-.7-25.3 10.8-30.8 1.1-.5 2.3-1 3.5-1.3-2.4-.4-4.8 0-6.9 1.3-4.8-3.2-8.3-8-10-13.6 2.6 1.9 5.8 3 9 3.1-6.1-2.4-8.9-5.5-10-7.2-.6-4.4-.3-8.8 1.1-13v-.1c1.3 3 3.2 5.7 5.5 8-3.6-5.5-4-10-4-11.9 1.4-2.8 3.3-5.4 5.6-7.5-.3 2.6 0 5.2 1.1 7.5-.1-3.2.3-6.3 1.2-9.4 3.2-2.3 6.9-3.6 10.8-4-13 11.7-9.6 27.9-3.3 34.2.6.6 1.2 1.1 1.8 1.5 1.7 1.5 2.9 3.5 3.3 5.8 1 3.9-1.8 9.5-5.3 12.9z" style="fill:url(#l)"/><linearGradient id="m" gradientUnits="userSpaceOnUse" x1="17.675" y1="1052.576" x2="13.245" y2="1036.627" gradientTransform="translate(0 -1018.78)"><stop offset="0" style="stop-color:#b78a3e"/><stop offset="1" style="stop-color:#ceae4c"/></linearGradient><path d="M13 29.5c-1.4-4.2-2.3-12.4 1.6-19.4-1.2 3.7-1 7.6.3 11.2-.3 3.8.3 7.6 1.7 11.1-1.3-.8-2.5-1.8-3.6-2.9z" style="fill:url(#m)"/><linearGradient id="n" gradientUnits="userSpaceOnUse" x1="12.51" y1="1048.412" x2="10.54" y2="1005.082" gradientTransform="translate(0 -1018.78)"><stop offset="0" style="stop-color:#b78a3e"/><stop offset="1" style="stop-color:#ceae4c"/></linearGradient><path d="M13 29.5c-3.6-5.5-4-10-4-11.9 1.4-2.8 3.3-5.4 5.6-7.5-3.9 7-3 15.3-1.6 19.4z" style="fill:url(#n)"/><linearGradient id="o" gradientUnits="userSpaceOnUse" x1="12.203" y1="1059.532" x2="-.988" y2="1017.592" gradientTransform="translate(0 -1018.78)"><stop offset="0" style="stop-color:#b78a3e"/><stop offset="1" style="stop-color:#ceae4c"/></linearGradient><path d="M16.4 41.8c-6.1-2.4-8.9-5.5-10-7.2-.6-4.4-.3-8.8 1.1-13-1 15.6 8.3 19.9 8.9 20.2z" style="fill:url(#o)"/><linearGradient id="p" gradientUnits="userSpaceOnUse" x1="28.738" y1="1057.13" x2="18.758" y2="1018.4" gradientTransform="translate(0 -1018.78)"><stop offset="0" style="stop-color:#eb2627"/><stop offset=".06" style="stop-color:#ed4129"/><stop offset=".16" style="stop-color:#f0692b"/><stop offset=".26" style="stop-color:#f28c2d"/><stop offset=".37" style="stop-color:#f4a72f"/><stop offset=".49" style="stop-color:#f6bd30"/><stop offset=".62" style="stop-color:#f7cc31"/><stop offset=".78" style="stop-color:#f8d532"/><stop offset="1" style="stop-color:#f8d832"/></linearGradient><path d="M24.4 38.4C11.8 26.8 20.6 8.8 23.1 6.8c-2-.1-6 1.3-6.2 1.4 3.2-2.3 6.9-3.6 10.8-4-12.9 11.8-9.5 27.9-3.3 34.2z" style="fill:url(#p)"/><linearGradient id="q" gradientUnits="userSpaceOnUse" x1="22.992" y1="1061.557" x2="6.642" y2="1045.747" gradientTransform="translate(0 -1018.78)"><stop offset="0" style="stop-color:#b78a3e"/><stop offset="1" style="stop-color:#ceae4c"/></linearGradient><path d="M21 41.7c-1.5.2-3.1.2-4.6.1-.5-.2-9.8-4.6-8.9-20.2C10.7 34.1 18.2 40.3 21 41.7z" style="fill:url(#q)"/><linearGradient id="r" gradientUnits="userSpaceOnUse" x1="9.939" y1="1111.12" x2="18.479" y2="1046.53" gradientTransform="translate(0 -1018.78)"><stop offset="0" style="stop-color:#eb2627"/><stop offset=".19" style="stop-color:#e4332a"/><stop offset=".56" style="stop-color:#d25732"/><stop offset="1" style="stop-color:#b78a3e"/></linearGradient><path d="M16.8 70.8c-.3 10.6 2.9 13.4 3 13.6-.2-.1-5.7-3.8-5.2-17.7-1.4 1.5-2 5.6-2 8.7s.6 4.7 1 8.1c.5 3.9.1 9.8-1.9 13.2 1-4.6 1-9.3-.1-13.9C9.7 75.8 6 59.5 24.1 51c-2.4-.4-4.8 0-6.9 1.3-4.8-3.2-8.3-8-10-13.6 5.2 6.3 12.9 7.8 17.7 7.8.8 2.7.5 5.7-.9 8.2-1.7 3.6-6.9 5.3-7.2 16.1z" style="fill:url(#r)"/><linearGradient id="s" gradientUnits="userSpaceOnUse" x1="8.639" y1="1114.926" x2="17.7" y2="1070.686" gradientTransform="translate(0 -1018.78)"><stop offset="0" style="stop-color:#602e8a"/><stop offset=".51" style="stop-color:#e92929"/><stop offset="1" style="stop-color:#f8d833"/></linearGradient><path d="M11.6 82.7c1.1 4.6 1.1 9.3.1 13.9 0-.2.5-8.3-1.8-13.5-5.5-11.5-.7-25.3 10.8-30.8 1.1-.5 2.3-1 3.4-1.3-18 8.4-14.4 24.8-12.5 31.7z" style="fill:url(#s)"/><linearGradient id="t" gradientUnits="userSpaceOnUse" x1="25.164" y1="1078.943" x2="30.154" y2="1052.103" gradientTransform="translate(0 -1018.78)"><stop offset="0" style="stop-color:#8e5323"/><stop offset="1" style="stop-color:#e59b29"/></linearGradient><path d="M24.2 58.6c3.4-3.4 6.2-9 5.4-13-.4-2.3-1.6-4.3-3.3-5.8v-.1c0-.3-.1-.6-.1-.9-.1.1 10.5 8.3-2 19.8z" style="fill:url(#t)"/></g><linearGradient id="u" gradientUnits="userSpaceOnUse" x1="0" y1="1048.48" x2="59.3" y2="1048.48" gradientTransform="translate(0 -1018.78)"><stop offset="0" style="stop-color:#ef7126"/><stop offset="1" style="stop-color:#f8d832"/></linearGradient><path d="M29.7 59.4C13.3 59.4 0 46.1 0 29.7S13.3 0 29.7 0s29.6 13.3 29.6 29.7-13.2 29.6-29.6 29.7zm0-58C14.1 1.4 1.4 14.1 1.4 29.7S14.1 58 29.7 58s28.2-12.7 28.2-28.3c0-15.6-12.6-28.3-28.2-28.3z" style="fill:url(#u)"/></svg>