<svg width="354" height="386" fill="none" xmlns="http://www.w3.org/2000/svg"><path d="M77.855 112.048 11.9 93.868a77.202 77.202 0 0 0-8.792 19.521l17.708 140.082 57.04-141.423z" fill="#C8A8FF"/><path d="M332.827 253.47 183.889.314a78.527 78.527 0 0 0-16.901.311L77.855 112.048 332.827 253.47z" fill="#875FE3"/><path d="m350.536 113.389-17.709 140.082 14.198 28.814a77.824 77.824 0 0 0 6.4-25.478V129.2a77.126 77.126 0 0 0-2.889-15.811z" fill="#9B65EA"/><path d="m20.815 253.47 141.979 131.257a77.42 77.42 0 0 0 27.961 0L332.703 253.47H20.815z" fill="#875FE3"/><path d="M20.815 253.471h312.012L77.855 112.048l-57.04 141.423z" fill="#AB83F2"/><path d="M3.107 113.389A79.235 79.235 0 0 0 .217 129.2v127.607a77.07 77.07 0 0 0 6.431 25.478l14.167-28.814L3.107 113.389zM166.988.625a76.799 76.799 0 0 0-23.425 6.986L33.491 71.383a77.333 77.333 0 0 0-21.592 22.485l65.956 18.18L166.988.625z" fill="#9B65EA"/><path d="M350.536 113.389a77.167 77.167 0 0 0-30.354-42.006L210.079 7.611a76.672 76.672 0 0 0-26.19-7.298L332.827 253.47l17.709-140.081zM190.879 384.727a77.479 77.479 0 0 0 19.2-6.237l110.103-63.804a77.116 77.116 0 0 0 26.843-32.338l-14.198-28.815-141.948 131.194zM6.648 282.285a76.899 76.899 0 0 0 26.843 32.339l110.072 63.803a78.038 78.038 0 0 0 19.231 6.237L20.815 253.47 6.648 282.285z" fill="#6D33CC"/></svg>