<svg width="24" height="24" fill="none" xmlns="http://www.w3.org/2000/svg"><circle cx="12" cy="12" r="12" fill="#F7F5F2"/><path d="M7.06 14.586H4.07V5.244h2.744c.044.348.088.688.14 1.12.868-1.046 1.982-1.402 3.27-1.36 1.298.049 2.35.505 2.973 1.708.114-.149.201-.257.28-.365 1.307-1.725 4.401-1.808 5.787-.157.447.53.692 1.145.7 1.8.036 2.157.027 4.314.036 6.472 0 .024-.017.05-.044.107h-2.902c-.008-.14-.026-.29-.026-.431 0-1.593.009-3.178-.009-4.77 0-.415-.026-.83-.123-1.237-.175-.755-.666-1.095-1.508-1.12-.85-.025-1.446.315-1.639 1.029a6.247 6.247 0 0 0-.21 1.551c-.027 1.494-.018 2.987-.018 4.48v.507h-2.963l-.027-.481c0-1.635 0-3.261-.008-4.896a6.39 6.39 0 0 0-.062-.912c-.122-.813-.622-1.236-1.455-1.278-.982-.05-1.648.332-1.85 1.12-.088.34-.114.714-.114 1.07-.009 1.618-.009 3.236-.009 4.854.027.166.027.324.027.531ZM4 19v-2.273h15.991V19H4Z" fill="#111"/></svg>