<svg width="24" height="24" fill="none" xmlns="http://www.w3.org/2000/svg"><path d="M23.124 7.518a11.769 11.769 0 0 0-2.634-3.96A12.073 12.073 0 0 0 16.53.924a11.932 11.932 0 0 0-4.506-.876c-1.554 0-3.072.294-4.506.876-1.488.6-2.82 1.488-3.96 2.634a11.98 11.98 0 0 0-2.634 3.96 11.932 11.932 0 0 0-.876 4.506c0 1.554.294 3.072.876 4.506.6 1.488 1.488 2.82 2.634 3.96a12.073 12.073 0 0 0 3.96 2.634c1.434.582 2.952.876 4.506.876 1.554 0 3.072-.294 4.506-.876 1.488-.6 2.82-1.488 3.96-2.634a11.98 11.98 0 0 0 2.634-3.96c.582-1.434.876-2.952.876-4.506 0-1.554-.294-3.072-.876-4.506ZM4.434 19.626C.276 15.462.276 8.718 4.434 4.56 8.592.402 15.342.402 19.5 4.56c4.158 4.158 4.158 10.908 0 15.066-4.158 4.158-10.902 4.158-15.066 0Z" fill="url(#a)"/><path d="M12 2.286A.87.87 0 1 0 12 4.027.87.87 0 0 0 12 2.286Z" fill="url(#b)"/><path d="M12 2.766a.39.39 0 1 1 0 .78.39.39 0 1 1 0-.78Z" fill="url(#c)"/><path d="M8.268 4.596a.87.87 0 1 0 .001 1.741.87.87 0 0 0-.001-1.741Z" fill="url(#d)"/><path d="M15.822 4.638a.87.87 0 1 0 .001 1.741.87.87 0 0 0-.001-1.741Z" fill="url(#e)"/><path d="M8.268 5.07a.39.39 0 1 1 0 .78.39.39 0 1 1 0-.78Z" fill="url(#f)"/><path d="M15.822 5.118a.39.39 0 1 1 0 .78.39.39 0 1 1 0-.78Z" fill="url(#g)"/><path d="M12 6.6a.999.999 0 0 0-.996 1.002A.999.999 0 0 0 12 8.604c.552 0 .996-.45.996-1.002A.999.999 0 0 0 12 6.6Z" fill="url(#h)"/><path d="M4.446 6.726a.87.87 0 1 0 .001 1.741.87.87 0 0 0-.001-1.741Z" fill="url(#i)"/><path d="M19.596 6.726a.87.87 0 1 0 .001 1.741.87.87 0 0 0 0-1.741Z" fill="url(#j)"/><path d="M12 7.08a.522.522 0 1 1 0 1.045.522.522 0 0 1 0-1.045Z" fill="url(#k)"/><path d="M4.446 7.206a.39.39 0 1 1 0 .78.39.39 0 1 1 0-.78Z" fill="url(#l)"/><path d="M19.596 7.206a.39.39 0 1 1 0 .78.39.39 0 1 1 0-.78Z" fill="url(#m)"/><path d="M8.136 8.778a1.003 1.003 0 0 0 0 2.004c.552 0 .996-.45.996-1.002a.995.995 0 0 0-.996-1.002Z" fill="url(#n)"/><path d="M15.822 8.778a.999.999 0 0 0-.996 1.002.999.999 0 0 0 .996 1.002c.552 0 .996-.45.996-1.002a.999.999 0 0 0-.996-1.002Z" fill="url(#o)"/><path d="M8.136 9.258a.522.522 0 1 1 0 1.045.522.522 0 0 1 0-1.045Z" fill="url(#p)"/><path d="M15.822 9.258a.522.522 0 1 1 0 1.045.522.522 0 0 1 0-1.045Z" fill="url(#q)"/><path d="M4.446 11.13a.87.87 0 1 0 .001 1.741.87.87 0 0 0-.001-1.741Z" fill="url(#r)"/><path d="M19.596 11.13a.87.87 0 1 0 .001 1.741.87.87 0 0 0 0-1.741Z" fill="url(#s)"/><path d="M12.042 11.262a.737.737 0 1 1 .001 1.475.737.737 0 0 1-.001-1.475Z" fill="url(#t)"/><path d="M4.446 11.61a.39.39 0 1 1 0 .78.39.39 0 1 1 0-.78Z" fill="url(#u)"/><path d="M19.596 11.61a.39.39 0 1 1 0 .78.39.39 0 1 1 0-.78Z" fill="url(#v)"/><path d="M8.268 13.176a.999.999 0 0 0-.996 1.002.999.999 0 0 0 .996 1.002c.552 0 .996-.45.996-1.002a.999.999 0 0 0-.996-1.002Z" fill="url(#w)"/><path d="M15.822 13.176a.999.999 0 0 0-.996 1.002.999.999 0 0 0 .996 1.002c.552 0 .996-.45.996-1.002a.999.999 0 0 0-.996-1.002Z" fill="url(#x)"/><path d="M8.268 13.656a.522.522 0 1 1 0 1.045.522.522 0 0 1 0-1.045Z" fill="url(#y)"/><path d="M15.822 13.656a.522.522 0 1 1 0 1.045.522.522 0 0 1 0-1.045Z" fill="url(#z)"/><path d="M12 15.354a.999.999 0 0 0-.996 1.002.999.999 0 0 0 .996 1.002c.552 0 .996-.45.996-1.002A.995.995 0 0 0 12 15.354Z" fill="url(#A)"/><path d="M4.446 15.528a.87.87 0 1 0 .001 1.741.87.87 0 0 0-.001-1.741Z" fill="url(#B)"/><path d="M19.596 15.528a.87.87 0 1 0 .001 1.741.87.87 0 0 0 0-1.741Z" fill="url(#C)"/><path d="M12 15.834a.522.522 0 1 1 0 1.045.522.522 0 0 1 0-1.045Z" fill="url(#D)"/><path d="M4.446 16.008a.39.39 0 1 1 0 .78.39.39 0 1 1 0-.78Z" fill="url(#E)"/><path d="M19.596 16.008a.39.39 0 1 1 0 .78.39.39 0 1 1 0-.78Z" fill="url(#F)"/><path d="M8.268 17.706a.87.87 0 1 0 .001 1.741.87.87 0 0 0-.001-1.741Z" fill="url(#G)"/><path d="M15.822 17.754a.87.87 0 1 0 .001 1.741.87.87 0 0 0-.001-1.741Z" fill="url(#H)"/><path d="M8.268 18.186a.39.39 0 1 1 0 .78.39.39 0 1 1 0-.78Z" fill="url(#I)"/><path d="M15.822 18.234a.39.39 0 1 1 0 .78.39.39 0 1 1 0-.78Z" fill="url(#J)"/><path d="M12 20.016A.87.87 0 1 0 12 21.757.87.87 0 0 0 12 20.016Z" fill="url(#K)"/><path d="M12 20.496a.39.39 0 1 1 0 .78.39.39 0 1 1 0-.78Z" fill="url(#L)"/><path d="m15.474 9.642-3.084 1.872.246.408 3.084-1.872-.246-.408Z" fill="url(#M)"/><path d="m8.514 9.594-.258.402L11.382 12l.258-.402-3.126-2.004Z" fill="url(#N)"/><path d="m7.68 9.81-2.862 1.788.252.408 2.862-1.788-.252-.408Z" fill="url(#O)"/><path d="M19.314 11.898 16.23 13.77l.246.408 3.084-1.872-.246-.408Z" fill="url(#P)"/><path d="m11.502 12.072-3.084 1.872.246.408 3.084-1.872-.246-.408Z" fill="url(#Q)"/><path d="m12.594 12.018-.258.402 3.126 2.004.258-.402-3.126-2.004Z" fill="url(#R)"/><path d="m16.326 9.666-.258.402 3.126 2.004.258-.402-3.126-2.004Z" fill="url(#S)"/><path d="m4.806 11.946-.258.402 3.126 2.004.258-.402-3.126-2.004Z" fill="url(#T)"/><defs><radialGradient id="b" cx="0" cy="0" r="1" gradientUnits="userSpaceOnUse" gradientTransform="matrix(8.44311 0 0 8.47483 12.023 12.023)"><stop stop-color="#F0F"/><stop offset="1" stop-color="#734CE2"/></radialGradient><radialGradient id="c" cx="0" cy="0" r="1" gradientUnits="userSpaceOnUse" gradientTransform="matrix(8.44311 0 0 8.47484 12.023 12.023)"><stop stop-color="#F0F"/><stop offset="1" stop-color="#734CE2"/></radialGradient><radialGradient id="d" cx="0" cy="0" r="1" gradientUnits="userSpaceOnUse" gradientTransform="matrix(8.44311 0 0 8.47483 12.023 12.023)"><stop stop-color="#F0F"/><stop offset="1" stop-color="#734CE2"/></radialGradient><radialGradient id="e" cx="0" cy="0" r="1" gradientUnits="userSpaceOnUse" gradientTransform="matrix(8.44311 0 0 8.47483 12.023 12.023)"><stop stop-color="#F0F"/><stop offset="1" stop-color="#734CE2"/></radialGradient><radialGradient id="f" cx="0" cy="0" r="1" gradientUnits="userSpaceOnUse" gradientTransform="matrix(8.44311 0 0 8.47484 12.023 12.023)"><stop stop-color="#F0F"/><stop offset="1" stop-color="#734CE2"/></radialGradient><radialGradient id="g" cx="0" cy="0" r="1" gradientUnits="userSpaceOnUse" gradientTransform="matrix(8.44311 0 0 8.47484 12.023 12.023)"><stop stop-color="#F0F"/><stop offset="1" stop-color="#734CE2"/></radialGradient><radialGradient id="h" cx="0" cy="0" r="1" gradientUnits="userSpaceOnUse" gradientTransform="matrix(8.44311 0 0 8.47483 12.023 12.023)"><stop stop-color="#F0F"/><stop offset="1" stop-color="#734CE2"/></radialGradient><radialGradient id="i" cx="0" cy="0" r="1" gradientUnits="userSpaceOnUse" gradientTransform="matrix(8.44311 0 0 8.47484 12.023 12.023)"><stop stop-color="#F0F"/><stop offset="1" stop-color="#734CE2"/></radialGradient><radialGradient id="j" cx="0" cy="0" r="1" gradientUnits="userSpaceOnUse" gradientTransform="matrix(8.44311 0 0 8.47484 12.023 12.023)"><stop stop-color="#F0F"/><stop offset="1" stop-color="#734CE2"/></radialGradient><radialGradient id="k" cx="0" cy="0" r="1" gradientUnits="userSpaceOnUse" gradientTransform="matrix(8.4431 0 0 8.47483 12.023 12.023)"><stop stop-color="#F0F"/><stop offset="1" stop-color="#734CE2"/></radialGradient><radialGradient id="l" cx="0" cy="0" r="1" gradientUnits="userSpaceOnUse" gradientTransform="matrix(8.44311 0 0 8.47484 12.023 12.023)"><stop stop-color="#F0F"/><stop offset="1" stop-color="#734CE2"/></radialGradient><radialGradient id="m" cx="0" cy="0" r="1" gradientUnits="userSpaceOnUse" gradientTransform="matrix(8.44311 0 0 8.47484 12.023 12.023)"><stop stop-color="#F0F"/><stop offset="1" stop-color="#734CE2"/></radialGradient><radialGradient id="n" cx="0" cy="0" r="1" gradientUnits="userSpaceOnUse" gradientTransform="matrix(8.44311 0 0 8.47483 12.023 12.023)"><stop stop-color="#F0F"/><stop offset="1" stop-color="#734CE2"/></radialGradient><radialGradient id="o" cx="0" cy="0" r="1" gradientUnits="userSpaceOnUse" gradientTransform="matrix(8.4431 0 0 8.47483 12.023 12.023)"><stop stop-color="#F0F"/><stop offset="1" stop-color="#734CE2"/></radialGradient><radialGradient id="p" cx="0" cy="0" r="1" gradientUnits="userSpaceOnUse" gradientTransform="matrix(8.44311 0 0 8.47483 12.023 12.023)"><stop stop-color="#F0F"/><stop offset="1" stop-color="#734CE2"/></radialGradient><radialGradient id="q" cx="0" cy="0" r="1" gradientUnits="userSpaceOnUse" gradientTransform="matrix(8.4431 0 0 8.47483 12.023 12.023)"><stop stop-color="#F0F"/><stop offset="1" stop-color="#734CE2"/></radialGradient><radialGradient id="r" cx="0" cy="0" r="1" gradientUnits="userSpaceOnUse" gradientTransform="matrix(8.44311 0 0 8.47483 12.023 12.023)"><stop stop-color="#F0F"/><stop offset="1" stop-color="#734CE2"/></radialGradient><radialGradient id="s" cx="0" cy="0" r="1" gradientUnits="userSpaceOnUse" gradientTransform="matrix(8.44311 0 0 8.47483 12.023 12.023)"><stop stop-color="#F0F"/><stop offset="1" stop-color="#734CE2"/></radialGradient><radialGradient id="t" cx="0" cy="0" r="1" gradientUnits="userSpaceOnUse" gradientTransform="matrix(8.44311 0 0 8.47484 12.023 12.023)"><stop stop-color="#F0F"/><stop offset="1" stop-color="#734CE2"/></radialGradient><radialGradient id="u" cx="0" cy="0" r="1" gradientUnits="userSpaceOnUse" gradientTransform="matrix(8.44311 0 0 8.47484 12.023 12.023)"><stop stop-color="#F0F"/><stop offset="1" stop-color="#734CE2"/></radialGradient><radialGradient id="v" cx="0" cy="0" r="1" gradientUnits="userSpaceOnUse" gradientTransform="matrix(8.44311 0 0 8.47484 12.023 12.023)"><stop stop-color="#F0F"/><stop offset="1" stop-color="#734CE2"/></radialGradient><radialGradient id="w" cx="0" cy="0" r="1" gradientUnits="userSpaceOnUse" gradientTransform="matrix(8.44311 0 0 8.47483 12.023 12.023)"><stop stop-color="#F0F"/><stop offset="1" stop-color="#734CE2"/></radialGradient><radialGradient id="x" cx="0" cy="0" r="1" gradientUnits="userSpaceOnUse" gradientTransform="matrix(8.4431 0 0 8.47483 12.023 12.023)"><stop stop-color="#F0F"/><stop offset="1" stop-color="#734CE2"/></radialGradient><radialGradient id="y" cx="0" cy="0" r="1" gradientUnits="userSpaceOnUse" gradientTransform="matrix(8.4431 0 0 8.47483 12.023 12.023)"><stop stop-color="#F0F"/><stop offset="1" stop-color="#734CE2"/></radialGradient><radialGradient id="z" cx="0" cy="0" r="1" gradientUnits="userSpaceOnUse" gradientTransform="matrix(8.4431 0 0 8.47483 12.023 12.023)"><stop stop-color="#F0F"/><stop offset="1" stop-color="#734CE2"/></radialGradient><radialGradient id="A" cx="0" cy="0" r="1" gradientUnits="userSpaceOnUse" gradientTransform="matrix(8.44311 0 0 8.47483 12.023 12.023)"><stop stop-color="#F0F"/><stop offset="1" stop-color="#734CE2"/></radialGradient><radialGradient id="B" cx="0" cy="0" r="1" gradientUnits="userSpaceOnUse" gradientTransform="matrix(8.44311 0 0 8.47483 12.023 12.023)"><stop stop-color="#F0F"/><stop offset="1" stop-color="#734CE2"/></radialGradient><radialGradient id="C" cx="0" cy="0" r="1" gradientUnits="userSpaceOnUse" gradientTransform="matrix(8.44311 0 0 8.47483 12.023 12.023)"><stop stop-color="#F0F"/><stop offset="1" stop-color="#734CE2"/></radialGradient><radialGradient id="D" cx="0" cy="0" r="1" gradientUnits="userSpaceOnUse" gradientTransform="matrix(8.4431 0 0 8.47483 12.023 12.023)"><stop stop-color="#F0F"/><stop offset="1" stop-color="#734CE2"/></radialGradient><radialGradient id="E" cx="0" cy="0" r="1" gradientUnits="userSpaceOnUse" gradientTransform="matrix(8.44311 0 0 8.47484 12.023 12.023)"><stop stop-color="#F0F"/><stop offset="1" stop-color="#734CE2"/></radialGradient><radialGradient id="F" cx="0" cy="0" r="1" gradientUnits="userSpaceOnUse" gradientTransform="matrix(8.44311 0 0 8.47484 12.023 12.023)"><stop stop-color="#F0F"/><stop offset="1" stop-color="#734CE2"/></radialGradient><radialGradient id="G" cx="0" cy="0" r="1" gradientUnits="userSpaceOnUse" gradientTransform="matrix(8.44311 0 0 8.47483 12.023 12.023)"><stop stop-color="#F0F"/><stop offset="1" stop-color="#734CE2"/></radialGradient><radialGradient id="H" cx="0" cy="0" r="1" gradientUnits="userSpaceOnUse" gradientTransform="matrix(8.44311 0 0 8.47483 12.023 12.023)"><stop stop-color="#F0F"/><stop offset="1" stop-color="#734CE2"/></radialGradient><radialGradient id="I" cx="0" cy="0" r="1" gradientUnits="userSpaceOnUse" gradientTransform="matrix(8.44311 0 0 8.47484 12.023 12.023)"><stop stop-color="#F0F"/><stop offset="1" stop-color="#734CE2"/></radialGradient><radialGradient id="J" cx="0" cy="0" r="1" gradientUnits="userSpaceOnUse" gradientTransform="matrix(8.44311 0 0 8.47484 12.023 12.023)"><stop stop-color="#F0F"/><stop offset="1" stop-color="#734CE2"/></radialGradient><radialGradient id="K" cx="0" cy="0" r="1" gradientUnits="userSpaceOnUse" gradientTransform="matrix(8.44311 0 0 8.47483 12.023 12.023)"><stop stop-color="#F0F"/><stop offset="1" stop-color="#734CE2"/></radialGradient><radialGradient id="L" cx="0" cy="0" r="1" gradientUnits="userSpaceOnUse" gradientTransform="matrix(8.44311 0 0 8.47484 12.023 12.023)"><stop stop-color="#F0F"/><stop offset="1" stop-color="#734CE2"/></radialGradient><radialGradient id="M" cx="0" cy="0" r="1" gradientUnits="userSpaceOnUse" gradientTransform="matrix(8.44311 0 0 8.47483 12.023 12.023)"><stop stop-color="#F0F"/><stop offset="1" stop-color="#734CE2"/></radialGradient><radialGradient id="N" cx="0" cy="0" r="1" gradientUnits="userSpaceOnUse" gradientTransform="matrix(8.44311 0 0 8.47484 12.023 12.023)"><stop stop-color="#F0F"/><stop offset="1" stop-color="#734CE2"/></radialGradient><radialGradient id="O" cx="0" cy="0" r="1" gradientUnits="userSpaceOnUse" gradientTransform="matrix(8.44311 0 0 8.47484 12.023 12.023)"><stop stop-color="#F0F"/><stop offset="1" stop-color="#734CE2"/></radialGradient><radialGradient id="P" cx="0" cy="0" r="1" gradientUnits="userSpaceOnUse" gradientTransform="matrix(8.44311 0 0 8.47483 12.023 12.023)"><stop stop-color="#F0F"/><stop offset="1" stop-color="#734CE2"/></radialGradient><radialGradient id="Q" cx="0" cy="0" r="1" gradientUnits="userSpaceOnUse" gradientTransform="matrix(8.44311 0 0 8.47483 12.023 12.023)"><stop stop-color="#F0F"/><stop offset="1" stop-color="#734CE2"/></radialGradient><radialGradient id="R" cx="0" cy="0" r="1" gradientUnits="userSpaceOnUse" gradientTransform="matrix(8.44311 0 0 8.47483 12.023 12.023)"><stop stop-color="#F0F"/><stop offset="1" stop-color="#734CE2"/></radialGradient><radialGradient id="S" cx="0" cy="0" r="1" gradientUnits="userSpaceOnUse" gradientTransform="matrix(8.44311 0 0 8.47483 12.023 12.023)"><stop stop-color="#F0F"/><stop offset="1" stop-color="#734CE2"/></radialGradient><radialGradient id="T" cx="0" cy="0" r="1" gradientUnits="userSpaceOnUse" gradientTransform="matrix(8.44311 0 0 8.47483 12.023 12.023)"><stop stop-color="#F0F"/><stop offset="1" stop-color="#734CE2"/></radialGradient><linearGradient id="a" x1="3.554" y1="3.553" x2="20.492" y2="20.492" gradientUnits="userSpaceOnUse"><stop offset="0" stop-color="#FF00FA"/><stop offset="1" stop-color="#7549F3"/></linearGradient></defs></svg>