<svg xmlns="http://www.w3.org/2000/svg" width="80" height="22"><path d="M13.27 0c3.68 0 6.662 2.955 6.662 6.6 0 1.69-.642 3.232-1.698 4.4a6.538 6.538 0 011.698 4.4c0 3.567-2.857 6.474-6.429 6.596L13.27 22H4.59a.935.935 0 01-.932-.821l-.007-.109v-6.195c0-.205.15-.375.347-.41l.075-.007H7.67l.076.006a.423.423 0 01.34.336l.006.075v2.312c0 .2.143.366.333.405l.084.008h4.76a2.21 2.21 0 002.221-2.2 2.21 2.21 0 00-2.062-2.195l-.159-.005H8.76v-.001H2.102C.48 13.09 0 10.999 0 10.999s.443-1.927 1.913-2.177l.189-.022h11.167a2.21 2.21 0 002.221-2.2 2.21 2.21 0 00-2.062-2.195l-.159-.005H8.51a.414.414 0 00-.408.33l-.009.083v2.311a.42.42 0 01-.346.412l-.076.006H4.072a.42.42 0 01-.415-.342l-.006-.076V.93c0-.477.362-.87.828-.924L4.59 0h8.68zm14.622 6.669c3.105 0 6.165 1.29 6.165 7.618 0 .206-.002.318-.02.569-.024.464-.354.84-.778.903l-.108.008v.001h-7.203v.023c0 1.624 1.474 2.173 2.547 2.173 1.094 0 1.564-.095 2.167-.31.335-.12.67-.31 1.05-.358.76-.096 1.474.19 1.764.907.47 1.17-.067 2.173-1.139 2.842-.715.454-2.3.955-3.932.955-3.175 0-6.737-1.56-6.876-6.325l-.004-.29v-2.101c0-5.087 3.507-6.615 6.367-6.615zm10.22-5.254c1.296 0 2.392.683 2.477 2.195l.006.193V19.54l-.006.162A2.473 2.473 0 0138.111 22a2.473 2.473 0 01-2.477-2.298l-.006-.162V3.803c0-1.647 1.133-2.388 2.483-2.388zm9.45.86c1.157 0 2.292.682 2.381 2.174l.006.19v2.484h1.422c1.543 0 2.122 1.027 2.122 2.006 0 .959-.552 1.875-1.929 1.952l-.193.006H49.95v5.922c0 .716.361.884.771.907.362.024.579-.095 1.061-.095.796 0 1.47.525 1.64 1.313.216.98-.218 1.791-.893 2.221-.554.358-1.47.645-2.29.645-3.13 0-4.974-1.229-5.06-4.642l-.003-.253v-6.018h-.795c-1.52 0-2.122-.955-2.122-1.958 0-.939.532-1.92 1.934-2l.188-.006h.795V4.639c0-1.624 1.182-2.364 2.387-2.364zm22.228-.86c.94 0 2 .191 2.772.669.82.502 1.037 1.313.82 2.22-.217.717-.844 1.362-1.64 1.362-.385 0-.578-.048-.988-.12a3.893 3.893 0 00-.675-.07c-.45 0-.69.207-.72.837l-.003.141v.669h1.374c1.543 0 2.122 1.003 2.122 2.006 0 .982-.552 1.877-1.929 1.953l-.193.005h-1.374v8.471c0 1.349-1.104 2.442-2.465 2.442-1.361 0-2.465-1.093-2.465-2.442l.003-.118.009-.117v-8.236h-.82c-1.519 0-2.121-.932-2.121-1.958 0-.961.531-1.923 1.933-2.001l.188-.005h.82v-.526c0-3.844 1.88-5.182 5.352-5.182zm7.727 6.615c1.296 0 2.392.682 2.478 2.195l.005.193v9.122l-.005.162A2.475 2.475 0 0177.517 22a2.473 2.473 0 01-2.478-2.298l-.005-.162v-9.122c0-1.647 1.133-2.388 2.483-2.388zm-20.022 9.194c1.331 0 2.41 1.069 2.41 2.388S58.827 22 57.496 22c-1.332 0-2.411-1.07-2.411-2.388 0-1.319 1.08-2.388 2.41-2.388zm-29.581-6.686c-.942 0-1.863.482-1.958 1.91l-.008.191h3.775c.067-1.576-.826-2.101-1.81-2.101zm49.579-9.123A2.496 2.496 0 0180 3.9c0 1.372-1.123 2.484-2.507 2.484-1.385 0-2.508-1.112-2.508-2.484 0-1.372 1.123-2.484 2.508-2.484z" fill="#FF8336" fill-rule="evenodd"/></svg>